<svg width="24" height="24" viewBox="0 0 24 24" fill="none" xmlns="http://www.w3.org/2000/svg">
<path d="M17.3999 14.4C19.3919 14.4 20.9999 16.008 20.9999 18C20.9999 19.992 19.3919 21.6 17.3999 21.6C15.4079 21.6 13.7999 19.992 13.7999 18C13.7999 17.712 13.8359 17.448 13.9079 17.172L8.6519 14.412C7.9919 15.144 7.0559 15.6 5.9999 15.6C4.0079 15.6 2.3999 13.992 2.3999 12C2.3999 10.008 4.0079 8.40002 5.9999 8.40002C7.0559 8.40002 7.9919 8.86802 8.6519 9.58802L13.9079 6.82802C13.8359 6.55202 13.7999 6.28802 13.7999 6.00002C13.7999 4.00802 15.4079 2.40002 17.3999 2.40002C19.3919 2.40002 20.9999 4.00802 20.9999 6.00002C20.9999 7.99202 19.3919 9.60002 17.3999 9.60002C16.3439 9.60002 15.4079 9.13202 14.7479 8.41202L9.4919 11.172C9.63724 11.7145 9.63724 12.2856 9.4919 12.828L14.7479 15.588C15.4079 14.856 16.3439 14.4 17.3999 14.4Z" fill="#C7C5D0"/>
</svg>
