<svg width="37" height="37" viewBox="0 0 37 37" fill="none" xmlns="http://www.w3.org/2000/svg">
<path d="M20.0416 15.4167H4.62492C3.777 15.4167 3.08325 16.1104 3.08325 16.9583C3.08325 17.8062 3.777 18.5 4.62492 18.5H20.0416C20.8895 18.5 21.5833 17.8062 21.5833 16.9583C21.5833 16.1104 20.8895 15.4167 20.0416 15.4167ZM20.0416 9.25H4.62492C3.777 9.25 3.08325 9.94375 3.08325 10.7917C3.08325 11.6396 3.777 12.3333 4.62492 12.3333H20.0416C20.8895 12.3333 21.5833 11.6396 21.5833 10.7917C21.5833 9.94375 20.8895 9.25 20.0416 9.25ZM27.7499 21.5833V16.9583C27.7499 16.1104 27.0562 15.4167 26.2083 15.4167C25.3603 15.4167 24.6666 16.1104 24.6666 16.9583V21.5833H20.0416C19.1937 21.5833 18.4999 22.2771 18.4999 23.125C18.4999 23.9729 19.1937 24.6667 20.0416 24.6667H24.6666V29.2917C24.6666 30.1396 25.3603 30.8333 26.2083 30.8333C27.0562 30.8333 27.7499 30.1396 27.7499 29.2917V24.6667H32.3749C33.2228 24.6667 33.9166 23.9729 33.9166 23.125C33.9166 22.2771 33.2228 21.5833 32.3749 21.5833H27.7499ZM4.62492 24.6667H13.8749C14.7228 24.6667 15.4166 23.9729 15.4166 23.125C15.4166 22.2771 14.7228 21.5833 13.8749 21.5833H4.62492C3.777 21.5833 3.08325 22.2771 3.08325 23.125C3.08325 23.9729 3.777 24.6667 4.62492 24.6667Z" fill="#C7C5D0"/>
</svg>
